# xmcd
#
# Track frame offsets:
#  150
#  18014
#  35851
#  58233
#  78212
#  92680
#  112175
#  131501
#  147438
#  168697
#  188578
#  204430
#  224462
#  245042
#  260018
#
# Disc length: 3749 seconds
#
# Revision: 0
# Processed by: cddbd v1.4PL0 Copyright (c) Steve Scherf et al.
# Submitted via: AltoMP3_Maker 3.0
#
DISCID=e10ea30f
DTITLE=王菲等 - 永恒畅想金曲（2）
DYEAR=1900
DGENRE=
TTITLE0=今夜祝你做个好梦
TTITLE1=心蓝
TTITLE2=飞沙流情
TTITLE3=醉心
TTITLE4=花火
TTITLE5=大地
TTITLE6=风暴女神
TTITLE7=拒绝再玩
TTITLE8=一生何求
TTITLE9=情无独钟
TTITLE10=活着
TTITLE11=给自己的情书
TTITLE12=饿狼传说
TTITLE13=护花使者
TTITLE14=真的汉子
EXTD=
EXTT0=
EXTT1=
EXTT2=
EXTT3=
EXTT4=
EXTT5=
EXTT6=
EXTT7=
EXTT8=
EXTT9=
EXTT10=
EXTT11=
EXTT12=
EXTT13=
EXTT14=
PLAYORDER=
